<svg width="24" height="24" viewBox="0 0 24 24" fill="none" xmlns="http://www.w3.org/2000/svg">
<path fill-rule="evenodd" clip-rule="evenodd" d="M7.41139 5.44676C8.17166 4.91441 9.01663 4.51989 9.9076 4.27845C10.4407 4.134 10.8243 3.63447 10.7474 3.08756C10.6706 2.54065 10.1631 2.15463 9.62659 2.28571C8.42384 2.57957 7.28319 3.09497 6.26424 3.80845C4.97153 4.71362 3.9114 5.91187 3.17052 7.30526C2.42965 8.69864 2.02906 10.2476 2.00152 11.8254C1.97981 13.0692 2.19037 14.303 2.61931 15.4645C2.81065 15.9826 3.41446 16.1874 3.91085 15.9453C4.40724 15.7032 4.60684 15.1058 4.42851 14.5831C4.13045 13.7095 3.98502 12.7883 4.00122 11.8604C4.02325 10.5981 4.34372 9.35891 4.93642 8.2442C5.52912 7.12949 6.37722 6.17089 7.41139 5.44676ZM13.2526 3.08756C13.1757 3.63447 13.5594 4.134 14.0924 4.27845C14.9834 4.51989 15.8284 4.91441 16.5886 5.44676C17.6228 6.17089 18.4709 7.12949 19.0636 8.2442C19.6563 9.35891 19.9768 10.5981 19.9988 11.8604C20.015 12.7883 19.8696 13.7095 19.5715 14.5831C19.3932 15.1058 19.5928 15.7032 20.0892 15.9453C20.5856 16.1874 21.1894 15.9826 21.3807 15.4645C21.8097 14.303 22.0202 13.0692 21.9985 11.8254C21.971 10.2476 21.5704 8.69864 20.8295 7.30526C20.0886 5.91187 19.0285 4.71362 17.7358 3.80845C16.7168 3.09497 15.5762 2.57957 14.3734 2.28571C13.8369 2.15463 13.3295 2.54065 13.2526 3.08756ZM12 15.9999C14.2091 15.9999 16 14.2091 16 11.9999C16 9.79078 14.2091 7.99992 12 7.99992C9.79086 7.99992 8 9.79078 8 11.9999C8 14.2091 9.79086 15.9999 12 15.9999ZM5.02553 17.6882C5.45352 17.3392 6.07954 17.4086 6.47923 17.7897C7.08657 18.3688 7.78279 18.8502 8.54334 19.2146C9.60535 19.7235 10.7666 19.9916 11.9442 19.9998C13.1218 20.008 14.2866 19.7561 15.3556 19.2622C16.1212 18.9085 16.8241 18.4368 17.4394 17.8662C17.8444 17.4907 18.4714 17.4301 18.8944 17.7851C19.3175 18.1401 19.3759 18.775 18.9805 19.1605C18.1692 19.9514 17.2275 20.6005 16.1945 21.0777C14.8583 21.6952 13.4022 22.01 11.9302 21.9997C10.4582 21.9895 9.00668 21.6543 7.67917 21.0183C6.65298 20.5266 5.72048 19.8645 4.92028 19.0624C4.53024 18.6714 4.59754 18.0373 5.02553 17.6882Z" fill="#1F1F27"/>
</svg>
