<svg width="16" height="16" viewBox="0 0 16 16" fill="none" xmlns="http://www.w3.org/2000/svg">
<path d="M6.09143 4.20845C6.09549 4.15576 6.09756 4.10251 6.09756 4.04878C6.09756 3.46386 5.85245 2.9362 5.45933 2.56289C5.09197 2.21405 4.59537 2 4.04878 2C2.91727 2 2 2.91727 2 4.04878C2 4.59537 2.21405 5.09197 2.56289 5.45933C2.9362 5.85245 3.46386 6.09756 4.04878 6.09756C4.10251 6.09756 4.15576 6.09549 4.20845 6.09143C5.21265 6.01403 6.01403 5.21265 6.09143 4.20845Z" fill="#010203"/>
<path d="M3.88172 6.97092C3.25996 6.93593 2.69006 6.70687 2.23163 6.34334C2.08079 6.86953 2 7.42533 2 8C2 11.3137 4.68629 14 8 14C11.3137 14 14 11.3137 14 8C14 4.68629 11.3137 2 8 2C7.42533 2 6.86953 2.08079 6.34334 2.23163C6.70687 2.69006 6.93593 3.25996 6.97092 3.88172C7.3004 3.79966 7.64511 3.7561 8 3.7561C10.3438 3.7561 12.2439 5.65616 12.2439 8C12.2439 10.3438 10.3438 12.2439 8 12.2439C5.65616 12.2439 3.7561 10.3438 3.7561 8C3.7561 7.64511 3.79966 7.3004 3.88172 6.97092Z" fill="#010203"/>
<path d="M6.09143 4.20845C6.09549 4.15576 6.09756 4.10251 6.09756 4.04878C6.09756 3.46386 5.85245 2.9362 5.45933 2.56289C5.09197 2.21405 4.59537 2 4.04878 2C2.91727 2 2 2.91727 2 4.04878C2 4.59537 2.21405 5.09197 2.56289 5.45933C2.9362 5.85245 3.46386 6.09756 4.04878 6.09756C4.10251 6.09756 4.15576 6.09549 4.20845 6.09143C5.21265 6.01403 6.01403 5.21265 6.09143 4.20845Z" fill="url(#paint0_linear_2_9)"/>
<defs>
<linearGradient id="paint0_linear_2_9" x1="2" y1="2" x2="6.09756" y2="6.09756" gradientUnits="userSpaceOnUse">
<stop stop-color="#6184FF"/>
<stop offset="1" stop-color="#4168EF"/>
</linearGradient>
</defs>
</svg>
